<?xml version="1.0" encoding="UTF-8"?>
<!DOCTYPE svg PUBLIC "-//W3C//DTD SVG 1.1//EN" "http://www.w3.org/Graphics/SVG/1.1/DTD/svg11.dtd">
<svg version="1.1" xmlns="http://www.w3.org/2000/svg" xmlns:xlink="http://www.w3.org/1999/xlink" x="0" y="0" width="600" height="200" viewBox="0, 0, 1200, 400">
  <g id="Layer_1">
    <g>
      <g>
        <g>
          <path d="M100.047,63.445 C104.94,63.445 107.608,65.224 108.498,69.673 L130.293,162.192 C130.738,164.861 132.962,163.971 133.852,161.302 L149.865,71.452 C151.199,65.669 154.313,63 159.651,63 L190.787,63 C196.569,63 198.793,65.669 197.904,71.452 L166.323,249.819 C165.433,255.156 162.319,258.27 156.537,258.27 L115.615,258.27 C110.722,258.27 108.053,256.491 107.164,252.043 L85.813,159.523 C84.923,156.854 82.699,157.744 82.254,160.413 L66.241,250.263 C65.352,255.601 62.238,258.715 56.456,258.715 L25.319,258.715 C19.982,258.715 17.313,255.601 18.202,250.263 L49.784,71.897 C51.118,66.114 54.232,63.445 59.569,63.445 L100.047,63.445 z" fill="#008282"/>
          <path d="M331.79,193.773 C328.677,211.121 316.667,258.27 253.949,258.27 C191.232,258.27 195.68,211.565 198.793,193.773 L210.358,127.497 C213.472,110.15 225.482,63 288.199,63 C350.917,63 346.024,109.705 343.355,127.497 L331.79,193.773 z M294.871,141.731 C298.43,121.27 299.319,108.815 279.748,108.815 C260.177,108.815 256.618,121.27 253.06,141.731 L246.388,179.984 C242.829,200.445 241.94,212.9 261.511,212.9 C281.082,212.9 284.641,200.445 288.199,179.984 L294.871,141.731 z" fill="#008282"/>
          <path d="M362.927,72.786 C362.482,67.004 366.04,63.445 371.823,63.445 L404.738,63.445 C409.631,63.445 413.19,66.114 412.745,70.562 L407.852,186.656 C408.297,189.325 410.521,189.325 411.41,186.656 L450.553,70.562 C452.332,65.669 455.891,63.445 460.784,63.445 L484.803,63.445 C489.696,63.445 492.81,66.114 492.81,70.562 L491.03,186.656 C491.475,189.325 493.699,189.325 494.589,186.656 L531.063,70.562 C532.397,65.669 536.401,63.445 541.293,63.445 L574.209,63.445 C579.991,63.445 582.216,67.004 580.436,72.786 L514.605,251.153 C512.826,256.046 508.823,258.27 503.93,258.27 L464.787,258.27 C459.894,258.27 457.225,255.601 456.78,251.153 L453.222,182.653 C453.222,179.984 450.998,179.984 449.664,182.653 L422.53,251.153 C420.751,256.046 416.748,258.27 411.855,258.27 L372.712,258.27 C367.819,258.27 364.706,255.601 364.706,251.153 L362.927,72.786 z" fill="#008282"/>
        </g>
        <g>
          <path d="M570.206,183.542 C572.43,183.542 573.319,184.431 572.875,186.655 L551.969,253.821 C551.524,255.6 550.19,256.934 548.41,256.934 L536.845,256.934 C535.066,256.934 533.732,255.6 534.177,253.821 L555.082,186.655 C555.527,184.431 556.862,183.542 558.641,183.542 L570.206,183.542 z" fill="#5B5B5F"/>
          <path d="M612.907,212.009 C610.683,212.009 610.238,211.12 610.238,208.896 C610.683,204.892 608.459,201.779 603.566,200.889 C599.563,200.444 596.449,202.224 596.004,204.448 C595.115,212.454 627.141,216.457 620.024,239.142 C619.134,242.256 610.238,259.159 586.219,256.045 C564.868,253.376 564.868,239.142 566.647,231.136 C567.092,229.357 568.427,228.467 570.206,228.022 L582.66,227.133 C584.884,227.133 585.774,228.022 585.329,230.246 C584.44,235.139 587.108,238.253 592.001,239.142 C596.894,239.587 601.342,237.363 601.787,234.694 C602.677,226.243 571.54,224.019 578.657,201.334 C579.547,198.22 586.664,180.873 609.349,183.987 C630.254,186.655 631.144,200.444 629.365,208.006 C628.92,209.785 627.586,210.675 625.806,211.12 L612.907,212.009 z" fill="#5B5B5F"/>
        </g>
        <g>
          <path d="M734.339,63.445 C783.712,63.445 800.17,84.796 792.164,130.166 C784.157,175.981 760.582,196.887 710.764,196.887 L697.42,196.887 C692.082,196.887 688.524,199.556 687.634,205.338 L679.628,249.819 C678.738,255.601 675.625,258.27 669.842,258.27 L638.706,258.27 C633.368,258.27 630.699,255.156 631.589,249.819 L663.17,71.897 C664.06,66.114 667.173,63.445 672.956,63.445 L734.339,63.445 z M720.995,149.293 C734.339,149.293 741.456,147.513 744.569,130.166 C747.683,112.819 741.011,111.039 727.667,111.039 L712.543,111.039 C707.206,111.039 703.647,113.708 702.758,119.491 L698.754,140.841 C697.865,146.179 700.534,149.293 705.871,149.293 L720.995,149.293 z" fill="#5A2B64"/>
          <path d="M931.388,193.773 C928.274,211.121 916.264,258.27 853.547,258.27 C790.829,258.27 795.277,211.565 798.391,193.773 L809.956,127.497 C813.069,110.15 825.079,63 887.797,63 C950.514,63 945.621,109.705 942.953,127.497 L931.388,193.773 z M894.914,141.731 C898.472,121.27 899.362,108.815 879.79,108.815 C860.219,108.815 856.66,121.27 853.102,141.731 L846.43,179.984 C842.871,200.445 841.982,212.9 861.553,212.9 C881.125,212.9 884.683,200.445 888.242,179.984 L894.914,141.731 z" fill="#5A2B64"/>
          <path d="M963.858,72.786 C963.414,67.004 966.972,63.445 972.754,63.445 L1005.67,63.445 C1010.563,63.445 1014.121,66.114 1013.676,70.562 L1008.784,186.656 C1009.228,189.325 1011.452,189.325 1012.342,186.656 L1051.485,70.562 C1053.264,65.669 1056.823,63.445 1061.715,63.445 L1085.735,63.445 C1090.628,63.445 1093.741,66.114 1093.741,70.562 L1091.962,186.656 C1092.407,189.325 1094.631,189.325 1095.521,186.656 L1131.995,70.562 C1133.329,65.669 1137.332,63.445 1142.225,63.445 L1175.141,63.445 C1180.923,63.445 1183.147,67.004 1181.368,72.786 L1115.537,251.153 C1113.758,256.046 1109.754,258.27 1104.862,258.27 L1066.163,258.27 C1061.271,258.27 1058.602,255.601 1058.157,251.153 L1054.599,182.653 C1054.599,179.984 1052.375,179.984 1051.04,182.653 L1023.907,251.153 C1022.128,256.046 1018.125,258.27 1013.232,258.27 L974.089,258.27 C969.196,258.27 966.082,255.601 966.082,251.153 L963.858,72.786 z" fill="#5A2B64"/>
        </g>
      </g>
      <g>
        <path d="M129.404,312.535 L125.401,312.98 L125.401,335.22 C122.732,335.665 118.729,335.665 116.06,335.22 L116.06,281.399 C118.729,280.954 122.732,280.954 125.401,281.399 L125.401,304.529 L130.294,304.084 L144.527,281.399 C147.641,280.954 151.644,280.954 154.758,281.399 L137.855,308.087 L156.092,335.22 C152.979,335.665 148.086,335.665 144.972,335.22 L129.404,312.535 z" fill="#5B5B5F"/>
        <path d="M180.112,296.967 L180.112,335.665 C176.998,336.11 173.884,336.11 170.771,335.665 L170.771,281.844 C173.884,281.399 177.888,281.399 181.001,281.844 L202.797,320.987 L202.797,281.844 C206.355,281.399 209.024,281.399 212.138,281.844 L212.138,335.22 C208.579,335.665 205.021,335.665 201.462,335.22 L180.112,296.967 z" fill="#5B5B5F"/>
        <path d="M268.183,321.431 C268.183,332.551 259.732,336.11 247.722,336.11 C235.268,336.11 226.816,332.551 226.816,321.431 L226.816,294.743 C226.816,283.623 235.268,280.064 247.722,280.064 C260.177,280.064 268.183,283.623 268.183,294.743 L268.183,321.431 z M258.842,296.522 C258.842,289.405 253.505,288.071 247.722,288.071 C241.94,288.071 236.602,288.961 236.602,296.522 L236.602,319.652 C236.602,326.769 241.94,327.659 247.722,327.659 C253.505,327.659 258.842,326.769 258.842,319.652 L258.842,296.522 z" fill="#5B5B5F"/>
        <path d="M319.781,295.188 L308.66,335.665 C305.992,336.11 301.988,336.11 299.319,335.665 L283.751,281.844 C286.42,281.399 290.868,281.399 293.537,281.844 L304.657,322.321 L315.332,281.844 C318.001,281.399 322.894,281.399 325.563,281.844 L336.238,322.321 L347.358,281.844 C350.027,281.399 354.031,281.399 356.699,281.844 L340.686,335.665 C338.018,336.11 334.459,336.11 331.345,335.665 L319.781,295.188 z" fill="#5B5B5F"/>
        <path d="M370.933,335.22 L370.933,281.399 C373.602,280.954 377.605,280.954 380.274,281.399 L380.274,327.214 L402.514,327.214 C402.959,329.438 402.959,332.996 402.514,334.775 L370.933,334.775 z" fill="#5B5B5F"/>
        <path d="M417.638,335.22 L417.638,281.399 L449.664,281.399 C450.108,283.623 450.108,286.737 449.664,288.961 L426.979,288.961 L426.979,304.084 L448.774,304.084 C449.219,306.308 449.219,309.422 448.774,311.646 L426.979,311.646 L426.979,327.214 L449.664,327.214 C450.108,329.438 450.108,332.996 449.664,334.775 L417.638,334.775 z" fill="#5B5B5F"/>
        <path d="M464.787,335.22 L464.787,281.399 L483.469,281.399 C496.813,281.399 504.819,284.957 504.819,296.077 L504.819,320.542 C504.819,331.217 496.813,335.22 483.469,335.22 L464.787,335.22 z M495.479,297.857 C495.479,290.74 490.141,289.405 483.469,289.405 L474.128,289.405 L474.128,326.769 L483.469,326.769 C490.141,326.769 495.479,325.435 495.479,318.763 L495.479,297.857 z" fill="#5B5B5F"/>
        <path d="M548.41,314.759 L539.514,314.759 C539.069,312.535 539.069,309.422 539.514,307.198 L557.306,307.198 L557.306,334.331 C551.524,336.11 545.742,337 541.293,337 C527.949,337 519.498,333.441 519.498,322.321 L519.498,295.188 C519.498,284.068 527.949,280.509 541.293,280.509 C546.186,280.509 551.079,280.954 556.417,281.844 C556.862,284.068 556.862,287.181 556.417,289.405 C551.524,288.516 547.521,288.516 542.628,288.516 C535.066,288.516 528.839,289.405 528.839,297.412 L528.839,319.652 C528.839,327.659 534.621,328.548 542.628,328.548 C544.407,328.548 546.186,328.548 547.966,328.104 L547.966,314.759 z" fill="#5B5B5F"/>
        <path d="M572.43,335.22 L572.43,281.399 L604.456,281.399 C604.901,283.623 604.901,286.737 604.456,288.961 L581.771,288.961 L581.771,304.084 L603.566,304.084 C604.011,306.308 604.011,309.422 603.566,311.646 L581.771,311.646 L581.771,327.214 L604.456,327.214 C604.901,329.438 604.901,332.996 604.456,334.775 L572.43,334.775 z" fill="#5B5B5F"/>
        <path d="M636.927,281.399 C639.596,280.954 643.599,280.954 646.268,281.399 L646.268,335.22 C643.599,335.665 639.596,335.665 636.927,335.22 L636.927,281.399 z" fill="#5B5B5F"/>
        <path d="M696.531,323.655 C696.531,332.996 689.414,336.555 677.849,336.555 C672.956,336.555 667.173,336.11 662.281,335.22 C661.836,332.996 661.836,329.438 662.281,327.214 C668.063,328.103 672.956,328.548 677.849,328.548 C683.186,328.548 687.19,327.659 687.19,322.321 L687.19,319.207 C687.19,315.204 685.855,314.759 680.962,313.425 L670.287,309.866 C664.949,308.087 661.836,305.418 661.836,298.746 L661.836,293.409 C661.836,284.068 669.842,280.509 680.962,280.509 C685.855,280.509 690.303,280.954 695.641,281.844 C696.086,284.068 696.086,287.181 695.641,289.405 C689.858,288.516 685.855,288.071 680.962,288.071 C675.18,288.071 670.732,288.961 670.732,294.298 L670.732,296.967 C670.732,300.526 672.511,301.415 676.959,302.75 L687.634,306.308 C693.417,308.087 696.086,310.311 696.086,317.873 L696.086,323.655 z" fill="#5B5B5F"/>
        <path d="M728.112,281.399 L745.014,281.399 C758.359,281.399 766.365,284.957 766.365,295.633 L766.365,301.415 C766.365,312.09 757.914,315.649 745.014,315.649 L737.453,315.649 L737.453,334.775 C734.784,335.22 730.781,335.22 728.112,334.775 L728.112,281.399 z M757.024,297.412 C757.024,290.74 751.686,289.405 745.014,289.405 L737.453,289.405 L737.453,308.087 L745.014,308.087 C751.686,308.087 757.024,306.753 757.024,300.525 L757.024,297.412 z" fill="#5B5B5F"/>
        <path d="M824.19,321.431 C824.19,332.551 815.738,336.11 803.729,336.11 C791.274,336.11 782.823,332.551 782.823,321.431 L782.823,294.743 C782.823,283.623 791.274,280.064 803.729,280.064 C816.183,280.064 824.19,283.623 824.19,294.743 L824.19,321.431 z M814.849,296.522 C814.849,289.405 809.511,288.071 803.729,288.071 C797.946,288.071 792.608,288.961 792.608,296.522 L792.608,319.652 C792.608,326.769 797.946,327.659 803.729,327.659 C809.511,327.659 814.849,326.769 814.849,319.652 L814.849,296.522 z" fill="#5B5B5F"/>
        <path d="M876.232,295.188 L865.112,335.665 C862.443,336.11 858.44,336.11 855.771,335.665 L840.203,281.844 C842.871,281.399 847.319,281.399 849.988,281.844 L861.108,322.321 L871.784,281.844 C874.453,281.399 879.345,281.399 882.014,281.844 L892.69,322.321 L903.81,281.844 C906.479,281.399 910.482,281.399 913.151,281.844 L897.138,335.665 C894.469,336.11 890.91,336.11 887.797,335.665 L876.232,295.188 z" fill="#5B5B5F"/>
        <path d="M928.719,335.22 L928.719,281.399 L960.745,281.399 C961.19,283.623 961.19,286.737 960.745,288.961 L938.06,288.961 L938.06,304.084 L959.855,304.084 C960.3,306.308 960.3,309.422 959.855,311.646 L938.06,311.646 L938.06,327.214 L960.745,327.214 C961.19,329.438 961.19,332.996 960.745,334.775 L928.719,334.775 z" fill="#5B5B5F"/>
        <path d="M976.758,281.399 L993.66,281.399 C1007.004,281.399 1015.011,284.957 1015.011,295.633 L1015.011,301.415 C1015.011,308.532 1010.563,312.535 1003.446,314.315 C1008.784,320.987 1012.787,328.548 1015.901,335.665 C1013.232,336.11 1008.784,336.11 1006.115,335.665 C1003.001,328.993 998.998,321.876 994.105,315.204 L986.543,315.204 L986.543,335.665 C983.875,336.11 979.871,336.11 977.203,335.665 L977.203,281.399 z M1005.67,297.412 C1005.67,290.74 1000.332,289.85 993.66,289.85 L986.099,289.85 L986.099,307.642 L993.66,307.642 C1000.332,307.642 1005.67,306.753 1005.67,300.081 L1005.67,297.412 z" fill="#5B5B5F"/>
      </g>
    </g>
  </g>
</svg>
