<?xml version="1.0" encoding="UTF-8" standalone="no"?>
<!-- Created with Inkscape (http://www.inkscape.org/) -->

<svg
   xmlns:dc="http://purl.org/dc/elements/1.1/"
   xmlns:cc="http://creativecommons.org/ns#"
   xmlns:rdf="http://www.w3.org/1999/02/22-rdf-syntax-ns#"
   xmlns:svg="http://www.w3.org/2000/svg"
   xmlns="http://www.w3.org/2000/svg"
   xmlns:sodipodi="http://sodipodi.sourceforge.net/DTD/sodipodi-0.dtd"
   xmlns:inkscape="http://www.inkscape.org/namespaces/inkscape"
   width="109.875"
   height="109.8533"
   id="svg2"
   version="1.1"
   inkscape:version="0.48.5 r10040"
   sodipodi:docname="plutus.svg">
  <defs
     id="defs4" />
  <sodipodi:namedview
     id="base"
     pagecolor="#ffffff"
     bordercolor="#666666"
     borderopacity="1.0"
     inkscape:pageopacity="0.0"
     inkscape:pageshadow="2"
     inkscape:zoom="4.3325805"
     inkscape:cx="54.937323"
     inkscape:cy="47.509025"
     inkscape:document-units="px"
     inkscape:current-layer="layer1"
     showgrid="false"
     inkscape:window-width="1366"
     inkscape:window-height="664"
     inkscape:window-x="-8"
     inkscape:window-y="-8"
     inkscape:window-maximized="1"
     showborder="false"
     fit-margin-top="0"
     fit-margin-left="0"
     fit-margin-right="0"
     fit-margin-bottom="0" />
  <metadata
     id="metadata7">
    <rdf:RDF>
      <cc:Work
         rdf:about="">
        <dc:format>image/svg+xml</dc:format>
        <dc:type
           rdf:resource="http://purl.org/dc/dcmitype/StillImage" />
        <dc:title></dc:title>
      </cc:Work>
    </rdf:RDF>
  </metadata>
  <g
     inkscape:label="Layer 1"
     inkscape:groupmode="layer"
     id="layer1"
     transform="translate(-0.15625,-942.3927)">
    <g
       id="g3834">
      <path
         inkscape:connector-curvature="0"
         id="path2992"
         transform="translate(0,308.2677)"
         d="m 0.21875,634.125 -0.0625,109.8125 9.96875,0 0.09375,-79.875 69.5625,0.0312 0,49.875 -19.6875,0.125 0,9.90625 29.9375,-0.0625 -0.0625,-69.84375 -79.8125,-0.125 0,-10 89.875,0.125 0,89.8125 -49.875,0.0625 -0.03125,-29.875 19.90625,-0.125 L 70,674.125 l -29.8125,0 0.03125,69.78125 69.8125,-0.0312 0,-109.75 -109.8125,0 z m 49.84375,49.90625 10,0 0,10 -10,0 0,-10 z"
         style="fill:#0000ff;stroke:none" />
      <path
         sodipodi:nodetypes="ccccc"
         inkscape:connector-curvature="0"
         id="path3052"
         d="m 30.120917,982.41741 0,69.81459 -9.958979,0.014 0,-69.84181 z"
         style="fill:#0000ff;stroke:none" />
    </g>
  </g>
</svg>
