<?xml version="1.0" standalone="no"?>
<!DOCTYPE svg PUBLIC "-//W3C//DTD SVG 20010904//EN"
 "http://www.w3.org/TR/2001/REC-SVG-20010904/DTD/svg10.dtd">
<svg version="1.0" xmlns="http://www.w3.org/2000/svg"
 width="1024.000000pt" height="1024.000000pt" viewBox="0 0 1024.000000 1024.000000"
 preserveAspectRatio="xMidYMid meet">
<metadata>
Created by potrace 1.11, written by Peter Selinger 2001-2013
</metadata>
<g transform="translate(0.000000,1024.000000) scale(0.100000,-0.100000)"
fill="#000000" stroke="none">
<path d="M2645 8257 c-16 -5 -36 -14 -43 -20 -34 -27 -58 -106 -87 -287 -3
-19 -10 -57 -15 -85 -5 -27 -12 -66 -15 -85 -3 -19 -12 -71 -20 -115 -17 -94
-20 -113 -40 -225 -9 -47 -24 -132 -34 -190 -11 -58 -36 -199 -57 -315 -20
-115 -41 -218 -46 -227 -5 -10 -17 -18 -26 -18 -14 0 -21 15 -32 63 -7 34 -14
67 -16 72 -1 6 -5 21 -8 35 -10 49 -14 66 -29 125 -9 33 -18 71 -21 85 -2 14
-16 75 -31 135 -14 61 -35 148 -46 195 -11 47 -26 112 -34 145 -8 33 -27 116
-44 185 -116 497 -111 479 -145 503 -31 22 -36 22 -396 25 -333 2 -368 1 -399
-15 -60 -31 -79 -76 -107 -248 -3 -20 -8 -47 -10 -59 -2 -11 -6 -34 -9 -51 -3
-16 -7 -41 -10 -55 -3 -14 -7 -41 -10 -60 -3 -19 -10 -60 -16 -90 -5 -30 -17
-93 -25 -140 -8 -47 -17 -96 -19 -110 -23 -125 -45 -251 -50 -280 -3 -19 -8
-42 -10 -50 -2 -8 -7 -40 -10 -70 -4 -30 -8 -57 -10 -60 -2 -3 -11 -48 -20
-100 -19 -111 -20 -115 -35 -200 -6 -36 -13 -74 -14 -85 -2 -11 -11 -58 -19
-105 -9 -47 -18 -101 -21 -120 -3 -19 -12 -69 -20 -110 -8 -41 -17 -95 -21
-120 -3 -25 -11 -64 -16 -88 -5 -23 -12 -59 -14 -80 -3 -20 -8 -48 -11 -62 -6
-32 -6 -34 -53 -300 -53 -298 -54 -311 -42 -342 22 -59 36 -61 339 -62 152 -1
291 3 307 8 75 23 95 67 130 286 3 19 14 82 25 140 11 58 21 116 24 130 10 64
19 117 22 135 6 32 24 127 29 155 13 74 76 429 80 450 3 14 10 52 15 85 27
164 29 172 46 186 10 8 18 9 25 2 9 -9 86 -334 284 -1198 73 -319 74 -323 110
-349 29 -21 38 -21 405 -21 350 0 377 1 406 19 37 22 61 60 69 107 3 19 10 57
15 84 5 28 12 64 15 80 3 17 7 41 9 55 3 14 12 66 21 115 8 50 17 101 20 115
23 131 48 269 51 285 4 28 71 409 83 470 5 28 12 70 16 95 3 25 10 63 15 85 5
22 12 56 15 75 4 27 87 501 110 630 3 14 12 66 20 115 16 92 22 121 29 165 27
149 78 441 81 461 4 31 -21 85 -43 95 -26 12 -582 13 -617 1z"/>
<path d="M4513 8254 c-475 -58 -801 -317 -954 -761 -34 -96 -49 -166 -85 -373
-14 -80 -27 -156 -29 -170 -6 -32 -80 -448 -106 -600 -37 -207 -47 -313 -44
-430 16 -473 329 -722 900 -714 147 2 233 11 335 35 230 54 396 143 541 289
198 201 298 441 363 875 4 22 8 47 11 55 2 8 6 31 9 50 3 19 8 45 10 56 2 12
7 39 10 60 4 22 15 89 26 150 11 61 22 129 25 150 4 21 8 46 10 54 2 8 7 31
10 50 3 19 14 85 25 145 75 417 26 679 -160 865 -92 92 -227 166 -340 186 -14
3 -34 8 -45 11 -11 3 -29 7 -40 9 -11 1 -40 5 -65 9 -78 13 -301 12 -407 -1z
m231 -734 c79 -38 109 -103 108 -234 0 -64 -53 -417 -87 -586 -7 -32 -12 -65
-20 -115 -3 -22 -7 -47 -10 -55 -2 -8 -6 -33 -10 -55 -14 -96 -38 -209 -65
-300 -53 -176 -178 -264 -370 -259 -134 4 -203 39 -237 124 -19 48 -22 69 -18
160 2 58 11 143 20 190 9 47 18 103 21 125 3 22 9 56 14 75 5 19 11 53 15 75
24 168 76 450 96 535 38 152 95 251 173 300 84 51 279 62 370 20z"/>
<path d="M5953 8240 c-64 -39 -64 -38 -58 -462 2 -211 7 -579 10 -818 4 -381
8 -680 19 -1480 3 -208 7 -227 53 -258 25 -15 61 -17 373 -18 192 0 359 4 377
9 63 19 85 52 162 247 40 102 78 196 83 210 6 14 74 184 152 379 125 315 161
389 180 371 7 -8 15 -91 21 -240 4 -74 8 -164 10 -200 2 -36 7 -121 10 -190 3
-69 8 -156 10 -195 2 -38 7 -122 10 -185 4 -68 13 -128 22 -147 26 -57 46 -59
431 -58 371 1 379 2 425 53 17 18 117 263 117 285 0 5 6 23 14 40 14 32 40
105 181 492 42 116 85 233 95 260 10 28 48 129 83 225 35 96 87 238 116 315
28 77 51 143 51 148 0 4 9 26 19 50 11 23 67 173 124 332 58 160 142 389 186
510 96 262 100 298 34 333 -29 16 -599 17 -640 1 -59 -22 -81 -56 -124 -193
-22 -72 -44 -142 -49 -156 -10 -27 -210 -664 -241 -765 -10 -33 -36 -116 -57
-185 -75 -237 -144 -455 -167 -532 -30 -97 -42 -120 -63 -116 -15 3 -17 25
-16 228 1 216 11 979 19 1429 4 241 1 257 -60 285 -31 15 -66 17 -268 14 -255
-3 -275 -8 -311 -69 -9 -16 -102 -282 -206 -591 -487 -1443 -440 -1311 -465
-1302 -15 6 -17 14 -17 69 0 36 11 319 17 425 2 41 7 154 10 250 4 96 8 204
10 240 2 36 6 142 10 235 3 94 8 197 10 230 2 33 7 148 11 255 l6 195 -26 26
c-14 15 -40 29 -57 33 -18 3 -160 6 -318 6 -266 0 -288 -1 -318 -20z"/>
<path d="M5317 5034 c-1 -1 -33 -4 -72 -7 -218 -19 -454 -105 -602 -220 -252
-194 -399 -479 -459 -887 -3 -19 -7 -42 -9 -50 -3 -8 -7 -33 -10 -55 -3 -22
-12 -74 -20 -115 -8 -41 -16 -88 -19 -105 -5 -35 -35 -208 -42 -245 -3 -14 -7
-38 -9 -55 -3 -16 -7 -42 -10 -57 -4 -15 -8 -41 -10 -58 -3 -18 -6 -39 -9 -49
-3 -9 -8 -36 -11 -61 -4 -25 -10 -63 -15 -85 -5 -23 -12 -81 -16 -130 -18
-225 -1 -339 72 -491 50 -106 124 -190 222 -252 68 -44 214 -101 276 -108 22
-3 43 -7 47 -10 17 -10 161 -18 299 -17 363 3 652 114 861 330 108 111 176
219 242 378 26 62 72 224 82 285 3 19 7 46 10 60 3 14 7 41 10 60 3 19 15 87
26 150 23 133 20 114 60 340 92 527 97 559 95 705 -2 108 -8 160 -25 227 -23
91 -77 203 -117 247 -13 14 -24 29 -24 33 0 14 -133 111 -199 144 -76 38 -218
78 -321 89 -58 7 -297 14 -303 9z m111 -735 c23 -6 55 -24 72 -39 69 -62 80
-159 45 -400 -7 -47 -142 -798 -149 -829 -3 -13 -13 -47 -23 -75 -9 -28 -18
-53 -18 -56 -4 -23 -53 -98 -83 -126 -50 -48 -81 -63 -160 -78 -114 -21 -209
-11 -279 30 -96 56 -110 173 -57 484 9 52 17 104 19 115 2 11 6 34 9 50 5 25
44 249 61 350 3 17 7 39 10 51 3 12 7 39 10 60 13 84 56 241 79 289 49 100
119 157 220 180 62 15 187 12 244 -6z"/>
<path d="M6703 5028 c-41 -11 -83 -61 -84 -101 -1 -52 2 -524 6 -907 2 -195 7
-650 10 -1010 9 -912 10 -952 23 -976 27 -51 54 -54 424 -54 313 0 347 2 384
19 23 10 49 29 58 42 9 13 87 202 172 419 86 217 162 409 170 425 7 17 36 89
64 162 71 182 98 199 105 67 2 -38 6 -118 9 -179 3 -60 8 -150 11 -200 7 -127
14 -263 20 -385 16 -321 16 -323 75 -353 32 -16 67 -17 392 -15 344 3 358 4
385 24 41 30 68 75 96 157 14 39 54 151 90 247 35 96 97 263 136 370 39 107
74 202 78 210 3 8 7 20 9 25 1 6 53 145 114 310 62 165 129 347 150 405 45
124 119 324 300 812 72 197 133 375 135 396 3 46 -18 79 -60 90 -17 5 -160 8
-320 7 -255 -1 -294 -3 -326 -18 -46 -23 -68 -63 -114 -212 -60 -195 -95 -307
-112 -355 -8 -25 -18 -58 -23 -75 -4 -16 -47 -154 -95 -305 -48 -151 -136
-432 -196 -625 -61 -192 -117 -357 -125 -365 -14 -13 -17 -13 -28 2 -7 9 -11
36 -10 60 1 24 5 268 9 543 4 275 8 583 10 685 11 622 11 612 -42 647 -23 16
-55 18 -257 18 -127 -1 -243 -4 -257 -8 -35 -9 -87 -63 -98 -101 -8 -28 -347
-1033 -545 -1615 -42 -124 -80 -229 -86 -235 -6 -6 -15 -4 -25 4 -16 13 -16 9
0 360 2 52 7 165 10 250 4 85 8 191 10 235 2 44 7 152 10 240 3 88 8 192 10
230 2 39 7 147 10 240 4 94 8 201 10 239 3 83 -7 119 -43 143 -24 16 -57 17
-323 18 -162 1 -309 -3 -326 -7z"/>
<path d="M477 5008 c-11 -18 -59 -192 -82 -298 -2 -8 -35 -145 -74 -304 -39
-158 -73 -298 -76 -310 -2 -11 -14 -59 -25 -105 -27 -110 -25 -112 106 -113
133 -1 140 2 159 65 13 42 138 550 150 607 2 8 13 53 25 100 12 47 23 93 25
103 2 9 11 45 20 80 9 34 18 67 19 72 15 60 17 108 5 116 -8 5 -65 9 -126 9
-106 0 -113 -1 -126 -22z"/>
<path d="M1173 5020 c-147 -30 -266 -140 -308 -285 -30 -101 -7 -193 65 -267
27 -26 139 -101 194 -128 41 -20 106 -83 106 -102 0 -51 -99 -94 -172 -75 -58
15 -88 56 -88 123 0 60 4 57 -85 55 -79 -2 -157 -12 -177 -22 -27 -15 -39 -54
-39 -130 0 -77 24 -145 69 -192 64 -68 195 -109 344 -109 174 1 331 85 411
223 54 91 46 221 -18 305 -33 43 -129 116 -215 163 -62 34 -120 91 -120 117 0
49 93 78 156 48 45 -22 62 -48 65 -102 4 -55 17 -62 100 -56 195 14 204 20
208 126 5 146 -74 247 -226 290 -78 21 -208 30 -270 18z"/>
<path d="M1973 5009 c-47 -23 -65 -58 -83 -164 -5 -33 -12 -70 -14 -81 -2 -12
-7 -39 -10 -60 -4 -22 -8 -46 -11 -54 -2 -8 -6 -33 -10 -54 -3 -21 -7 -48 -10
-60 -2 -12 -7 -37 -10 -56 -4 -33 -7 -49 -20 -110 -3 -14 -8 -43 -11 -65 -3
-22 -9 -58 -14 -80 -5 -22 -16 -83 -24 -135 -17 -105 -24 -142 -31 -180 -3
-14 -8 -36 -10 -50 -3 -14 -18 -101 -35 -195 -25 -148 -48 -277 -116 -655 -14
-77 -20 -111 -39 -220 -3 -19 -10 -62 -16 -95 -5 -33 -14 -80 -19 -105 -7 -37
-28 -154 -64 -363 -3 -15 -10 -55 -16 -88 -14 -74 -7 -109 26 -140 l26 -24
286 -1 c201 -1 297 2 322 11 45 15 74 58 88 132 14 71 40 209 46 243 13 78 19
112 31 175 8 39 16 88 19 110 4 22 8 51 11 65 8 40 15 73 21 104 7 43 33 81
68 102 27 16 56 19 211 20 169 1 372 11 385 19 3 1 28 6 55 9 71 9 218 52 300
88 283 123 467 358 574 733 19 65 52 242 66 345 9 73 7 266 -5 328 -16 92 -17
95 -38 149 -76 199 -236 323 -492 382 -149 35 -233 39 -820 40 -565 1 -576 1
-617 -20z m1098 -735 c92 -28 127 -93 113 -214 -4 -36 -8 -72 -9 -81 -6 -59
-52 -165 -89 -205 -63 -70 -109 -81 -348 -83 -252 -3 -268 3 -282 99 -1 14 1
39 5 55 4 17 10 46 13 65 3 19 17 94 31 165 41 210 49 216 323 214 138 0 208
-5 243 -15z"/>
</g>
</svg>
